<?xml version="1.0" encoding="UTF-8"?>
<svg id="_Слой_2" data-name="Слой 2" xmlns="http://www.w3.org/2000/svg" viewBox="0 0 203.85 222.41">
  <g id="_Слой_1-2" data-name="Слой 1">
    <g>
      <path class="cls-1" d="M12.35,85.37V31.42H2.53v-5.37H12.35v-7.18c0-6.07,1.54-10.73,4.63-13.98C20.07,1.63,24.37,0,29.89,0c2.49,0,4.81,.31,6.96,.93l-.49,5.48c-1.83-.44-3.82-.66-5.98-.66-3.62,0-6.43,1.12-8.44,3.37-2.01,2.25-3.02,5.44-3.02,9.57v7.35h14.15v5.37h-14.15v53.95h-6.58Z"/>
      <path class="cls-1" d="M73.31,86.46c-5.04,0-9.6-1.24-13.68-3.73-4.08-2.49-7.25-5.95-9.51-10.39-2.27-4.44-3.4-9.42-3.4-14.94v-2.36c0-5.7,1.11-10.84,3.32-15.41,2.21-4.57,5.29-8.16,9.24-10.77,3.95-2.61,8.22-3.92,12.83-3.92,7.2,0,12.91,2.46,17.13,7.37,4.22,4.92,6.33,11.63,6.33,20.15v3.67H53.24v1.26c0,6.73,1.93,12.33,5.78,16.81,3.86,4.48,8.71,6.72,14.56,6.72,3.51,0,6.61-.64,9.29-1.92,2.69-1.28,5.13-3.33,7.32-6.14l4.11,3.13c-4.82,6.98-11.82,10.47-21,10.47Zm-1.21-55.93c-4.93,0-9.09,1.81-12.47,5.43-3.38,3.62-5.44,8.48-6.17,14.58h35.58v-.71c-.18-5.7-1.81-10.34-4.88-13.93-3.07-3.58-7.09-5.37-12.06-5.37Z"/>
      <path class="cls-1" d="M119.91,85.37V31.42h-9.81v-5.37h9.81v-7.18c0-6.07,1.54-10.73,4.63-13.98,3.09-3.25,7.39-4.88,12.91-4.88,2.49,0,4.81,.31,6.96,.93l-.49,5.48c-1.83-.44-3.82-.66-5.98-.66-3.62,0-6.43,1.12-8.44,3.37-2.01,2.25-3.02,5.44-3.02,9.57v7.35h14.15v5.37h-14.15v53.95h-6.58Z"/>
      <path class="cls-1" d="M197.38,77.86c-3.95,5.74-10.25,8.61-18.92,8.61-6.32,0-11.13-1.84-14.42-5.51-3.29-3.67-4.97-9.11-5.04-16.31V26.04h6.52V63.82c0,11.3,4.57,16.94,13.71,16.94s15.52-3.93,18.04-11.79V26.04h6.58v59.32h-6.36l-.11-7.51Z"/>
      <path class="cls-1" d="M12.07,220.87v-65.2H0v-17.99H12.07v-6.61c0-9.48,2.79-16.84,8.38-22.06,5.59-5.23,13.43-7.84,23.53-7.84,3.69,0,7.74,.54,12.15,1.61l.08,19.07c-1.59-.46-3.72-.69-6.38-.69-7.84,0-11.76,3.38-11.76,10.15v6.38h16.22v17.99h-16.22v65.2H12.07Z"/>
      <path class="cls-1" d="M87.92,116.23c0-3.69,1.33-6.71,4-9.07,2.66-2.36,6.12-3.54,10.38-3.54s7.71,1.18,10.38,3.54c2.66,2.36,4,5.38,4,9.07s-1.33,6.72-4,9.07c-2.67,2.36-6.13,3.54-10.38,3.54s-7.72-1.18-10.38-3.54c-2.67-2.36-4-5.38-4-9.07Zm27.52,104.64h-25.99v-83.19h25.99v83.19Z"/>
      <path class="cls-1" d="M186.29,117v20.68h13.69v17.99h-13.69v38.06c0,3.13,.56,5.31,1.69,6.54,1.13,1.23,3.36,1.85,6.69,1.85,2.56,0,4.71-.15,6.46-.46v18.53c-4.66,1.49-9.53,2.23-14.61,2.23-8.92,0-15.51-2.1-19.76-6.3-4.26-4.2-6.38-10.58-6.38-19.14v-41.29h-10.61v-17.99h10.61v-20.68h25.91Z"/>
    </g>
  </g>
</svg>