<svg width="24" height="24" viewBox="0 0 24 24" fill="none" xmlns="http://www.w3.org/2000/svg">
<path fill-rule="evenodd" clip-rule="evenodd" d="M9.98015 12.7233C10.3928 12.3294 10.3928 11.6706 9.98015 11.2767L0.757573 2.47155C0.344972 2.07762 0.344972 1.4189 0.757573 1.02498L1.14059 0.659295C1.52703 0.290342 2.13525 0.290343 2.52169 0.659296L13.6424 11.2767C14.055 11.6706 14.055 12.3294 13.6424 12.7233L2.52169 23.3407C2.13524 23.7097 1.52703 23.7097 1.14059 23.3407L0.757572 22.975C0.344971 22.5811 0.344972 21.9224 0.757572 21.5285L9.98015 12.7233Z" fill="#4343F4"/>
<path fill-rule="evenodd" clip-rule="evenodd" d="M19.5802 12.7233C19.9928 12.3294 19.9928 11.6706 19.5802 11.2767L10.3577 2.47155C9.94507 2.07762 9.94507 1.4189 10.3577 1.02498L10.7407 0.659295C11.1271 0.290342 11.7353 0.290343 12.1218 0.659296L23.2425 11.2767C23.6551 11.6706 23.6551 12.3294 23.2425 12.7233L12.1218 23.3407C11.7353 23.7097 11.1271 23.7097 10.7407 23.3407L10.3577 22.975C9.94507 22.5811 9.94507 21.9224 10.3577 21.5285L19.5802 12.7233Z" fill="#4343F4"/>
</svg>
