<svg width="36" height="36" viewBox="0 0 36 36" fill="none" xmlns="http://www.w3.org/2000/svg">
<path d="M29.4943 6.50576C29.0623 6.07366 28.5494 5.7309 27.9849 5.49704C27.4204 5.26319 26.8154 5.14282 26.2044 5.14282C25.5934 5.14282 24.9884 5.26319 24.4239 5.49704C23.8594 5.7309 23.3465 6.07366 22.9145 6.50576L8.9422 20.4787C8.2786 21.1428 7.80539 21.9728 7.57194 22.8821L6.02774 28.8923C5.98945 29.0418 5.99082 29.1988 6.03172 29.3476C6.07262 29.4965 6.15164 29.6321 6.26097 29.7411C6.37029 29.85 6.50615 29.9286 6.65513 29.969C6.80411 30.0094 6.96105 30.0103 7.11046 29.9715L13.1186 28.429C14.0281 28.196 14.8582 27.7227 15.5219 27.0587L29.4943 13.0858C29.9263 12.6537 30.2691 12.1408 30.5029 11.5763C30.7368 11.0118 30.8571 10.4068 30.8571 9.79576C30.8571 9.18473 30.7368 8.57969 30.5029 8.01519C30.2691 7.45069 29.9263 6.93778 29.4943 6.50576ZM24.1694 7.7607C24.7091 7.22097 25.4411 6.91775 26.2044 6.91775C26.9677 6.91775 27.6997 7.22097 28.2394 7.7607C28.7791 8.30043 29.0823 9.03246 29.0823 9.79576C29.0823 10.5591 28.7791 11.2911 28.2394 11.8308L26.8567 13.2136L22.7868 9.14344L24.1694 7.7607ZM21.5319 10.3984L25.6018 14.4685L14.267 25.8038C13.8275 26.2424 13.2783 26.5551 12.6767 26.709L8.1204 27.8805L9.29186 23.3241C9.44464 22.722 9.75743 22.1724 10.1971 21.7336L21.5319 10.3984Z" fill="#4A4A4A"/>
</svg>
