<svg width="26" height="26" viewBox="0 0 26 26" fill="none" xmlns="http://www.w3.org/2000/svg">
<path d="M13 10.8333C13.2873 10.8333 13.5629 10.9475 13.766 11.1506C13.9692 11.3538 14.0833 11.6293 14.0833 11.9167V18.4167C14.0833 18.704 13.9692 18.9795 13.766 19.1827C13.5629 19.3859 13.2873 19.5 13 19.5C12.7127 19.5 12.4371 19.3859 12.234 19.1827C12.0308 18.9795 11.9167 18.704 11.9167 18.4167V11.9167C11.9167 11.6293 12.0308 11.3538 12.234 11.1506C12.4371 10.9475 12.7127 10.8333 13 10.8333ZM13 9.20833C13.2134 9.20833 13.4247 9.1663 13.6219 9.08464C13.819 9.00297 13.9982 8.88328 14.149 8.73238C14.2999 8.58149 14.4196 8.40235 14.5013 8.20519C14.583 8.00804 14.625 7.79673 14.625 7.58333C14.625 7.36994 14.583 7.15863 14.5013 6.96147C14.4196 6.76432 14.2999 6.58518 14.149 6.43428C13.9982 6.28339 13.819 6.16369 13.6219 6.08203C13.4247 6.00037 13.2134 5.95833 13 5.95833C12.5696 5.95833 12.1568 6.12931 11.8525 6.43365C11.5481 6.73799 11.3772 7.15076 11.3772 7.58117C11.3772 8.01157 11.5481 8.42434 11.8525 8.72868C12.1568 9.03302 12.5696 9.204 13 9.204V9.20833ZM0 13C-2.5439e-08 11.2928 0.336255 9.60235 0.989566 8.02512C1.64288 6.44788 2.60045 5.01477 3.80761 3.80761C5.01477 2.60045 6.44788 1.64288 8.02512 0.989566C9.60235 0.336255 11.2928 0 13 0C14.7072 0 16.3977 0.336255 17.9749 0.989566C19.5521 1.64288 20.9852 2.60045 22.1924 3.80761C23.3995 5.01477 24.3571 6.44788 25.0104 8.02512C25.6637 9.60235 26 11.2928 26 13C26 16.4478 24.6304 19.7544 22.1924 22.1924C19.7544 24.6304 16.4478 26 13 26C9.55219 26 6.24558 24.6304 3.80761 22.1924C1.36964 19.7544 5.13764e-08 16.4478 0 13ZM13 2.16667C10.1268 2.16667 7.37132 3.30803 5.33968 5.33968C3.30803 7.37132 2.16667 10.1268 2.16667 13C2.16667 15.8732 3.30803 18.6287 5.33968 20.6603C7.37132 22.692 10.1268 23.8333 13 23.8333C15.8732 23.8333 18.6287 22.692 20.6603 20.6603C22.692 18.6287 23.8333 15.8732 23.8333 13C23.8333 10.1268 22.692 7.37132 20.6603 5.33968C18.6287 3.30803 15.8732 2.16667 13 2.16667Z" fill="#DFDFDF"/>
</svg>
