<svg width="17" height="22" viewBox="0 0 17 22" fill="none" xmlns="http://www.w3.org/2000/svg">
<path d="M10.1867 19.9861C11.273 18.8143 12.8402 16.991 14.1388 14.9531C15.4272 12.9312 16.5 10.6238 16.5 8.5C16.5 6.37827 15.6571 4.34344 14.1569 2.84315C12.6566 1.34285 10.6217 0.5 8.5 0.5C6.37827 0.5 4.34344 1.34285 2.84315 2.84315C1.34285 4.34344 0.5 6.37827 0.5 8.5C0.5 10.6238 1.57283 12.9312 2.86123 14.9531C4.15984 16.991 5.72704 18.8143 6.81329 19.9861C7.7337 20.979 9.2663 20.979 10.1867 19.9861ZM8.5 11.75C7.63805 11.75 6.8114 11.4076 6.2019 10.7981C5.59241 10.1886 5.25 9.36195 5.25 8.5C5.25 7.63805 5.59241 6.8114 6.2019 6.2019C6.8114 5.59241 7.63805 5.25 8.5 5.25C9.36195 5.25 10.1886 5.59241 10.7981 6.2019C11.4076 6.8114 11.75 7.63805 11.75 8.5C11.75 9.36195 11.4076 10.1886 10.7981 10.7981C10.1886 11.4076 9.36195 11.75 8.5 11.75Z" stroke="white"/>
</svg>
