<svg width="42" height="42" viewBox="0 0 42 42" fill="none" xmlns="http://www.w3.org/2000/svg">
<path d="M26.5717 26.5717L34 34M18.6363 8C16.5326 8 14.4762 8.62381 12.7271 9.79254C10.978 10.9613 9.61468 12.6224 8.80964 14.566C8.00461 16.5095 7.79397 18.6481 8.20438 20.7113C8.61478 22.7746 9.62779 24.6698 11.1153 26.1573C12.6028 27.6448 14.498 28.6578 16.5613 29.0682C18.6245 29.4786 20.7631 29.268 22.7066 28.463C24.6502 27.6579 26.3113 26.2946 27.4801 24.5455C28.6488 22.7964 29.2726 20.74 29.2726 18.6363C29.2724 15.8154 28.1518 13.1102 26.1571 11.1155C24.1625 9.12084 21.4572 8.00018 18.6363 8Z" stroke="#252525" stroke-width="2" stroke-miterlimit="10" stroke-linecap="round"/>
</svg>
