<svg width="42" height="42" viewBox="0 0 42 42" fill="none" xmlns="http://www.w3.org/2000/svg">
<path d="M36 9.85714H15.375M11.625 9.85714H6M36 29.1429H15.375M11.625 29.1429H6M26.625 19.5H6M36 19.5H30.375M13.5 6C13.9973 6 14.4742 6.20319 14.8258 6.56487C15.1775 6.92654 15.375 7.41708 15.375 7.92857V11.7857C15.375 12.2972 15.1775 12.7877 14.8258 13.1494C14.4742 13.5111 13.9973 13.7143 13.5 13.7143C13.0027 13.7143 12.5258 13.5111 12.1742 13.1494C11.8225 12.7877 11.625 12.2972 11.625 11.7857V7.92857C11.625 7.41708 11.8225 6.92654 12.1742 6.56487C12.5258 6.20319 13.0027 6 13.5 6ZM13.5 25.2857C13.9973 25.2857 14.4742 25.4889 14.8258 25.8506C15.1775 26.2123 15.375 26.7028 15.375 27.2143V31.0714C15.375 31.5829 15.1775 32.0735 14.8258 32.4351C14.4742 32.7968 13.9973 33 13.5 33C13.0027 33 12.5258 32.7968 12.1742 32.4351C11.8225 32.0735 11.625 31.5829 11.625 31.0714V27.2143C11.625 26.7028 11.8225 26.2123 12.1742 25.8506C12.5258 25.4889 13.0027 25.2857 13.5 25.2857ZM28.5 15.6429C28.9973 15.6429 29.4742 15.846 29.8258 16.2077C30.1775 16.5694 30.375 17.0599 30.375 17.5714V21.4286C30.375 21.9401 30.1775 22.4306 29.8258 22.7923C29.4742 23.154 28.9973 23.3571 28.5 23.3571C28.0027 23.3571 27.5258 23.154 27.1742 22.7923C26.8225 22.4306 26.625 21.9401 26.625 21.4286V17.5714C26.625 17.0599 26.8225 16.5694 27.1742 16.2077C27.5258 15.846 28.0027 15.6429 28.5 15.6429Z" stroke="#252525" stroke-width="2" stroke-linecap="round" stroke-linejoin="round"/>
</svg>
