<svg width="24" height="24" viewBox="0 0 24 24" fill="none" xmlns="http://www.w3.org/2000/svg">
<path d="M21.3332 9.66658C21.3332 9.35716 21.2103 9.06041 20.9915 8.84162C20.7727 8.62283 20.4759 8.49991 20.1665 8.49991C19.8571 8.49991 19.5604 8.62283 19.3416 8.84162C19.1228 9.06041 18.9999 9.35716 18.9999 9.66658H21.3332ZM4.99985 9.66658C4.99985 9.35716 4.87693 9.06041 4.65814 8.84162C4.43935 8.62283 4.1426 8.49991 3.83318 8.49991C3.52376 8.49991 3.22702 8.62283 3.00823 8.84162C2.78943 9.06041 2.66652 9.35716 2.66652 9.66658H4.99985ZM21.675 12.8247C21.8951 13.0373 22.1898 13.1549 22.4957 13.1522C22.8015 13.1495 23.0942 13.0268 23.3105 12.8105C23.5268 12.5942 23.6495 12.3016 23.6521 11.9957C23.6548 11.6898 23.5372 11.3951 23.3247 11.1751L21.675 12.8247ZM11.9999 1.49991L12.8247 0.67508C12.6059 0.456364 12.3092 0.333496 11.9999 0.333496C11.6905 0.333496 11.3938 0.456364 11.175 0.67508L11.9999 1.49991ZM0.675017 11.1751C0.563589 11.2827 0.47471 11.4114 0.413566 11.5538C0.352422 11.6961 0.320238 11.8492 0.318892 12.0041C0.317546 12.159 0.347064 12.3126 0.405725 12.456C0.464386 12.5994 0.551015 12.7297 0.660556 12.8392C0.770098 12.9487 0.900358 13.0354 1.04374 13.094C1.18712 13.1527 1.34074 13.1822 1.49565 13.1809C1.65056 13.1795 1.80365 13.1473 1.94599 13.0862C2.08833 13.0251 2.21706 12.9362 2.32468 12.8247L0.675017 11.1751ZM6.16652 23.6666H17.8332V21.3332H6.16652V23.6666ZM21.3332 20.1666V9.66658H18.9999V20.1666H21.3332ZM4.99985 20.1666V9.66658H2.66652V20.1666H4.99985ZM23.3247 11.1751L12.8247 0.67508L11.175 2.32475L21.675 12.8247L23.3247 11.1751ZM11.175 0.67508L0.675017 11.1751L2.32468 12.8247L12.8247 2.32475L11.175 0.67508ZM17.8332 23.6666C18.7614 23.6666 19.6517 23.2978 20.3081 22.6415C20.9644 21.9851 21.3332 21.0948 21.3332 20.1666H18.9999C18.9999 20.476 18.8769 20.7727 18.6581 20.9915C18.4394 21.2103 18.1426 21.3332 17.8332 21.3332V23.6666ZM6.16652 21.3332C5.8571 21.3332 5.56035 21.2103 5.34156 20.9915C5.12277 20.7727 4.99985 20.476 4.99985 20.1666H2.66652C2.66652 21.0948 3.03527 21.9851 3.69164 22.6415C4.34802 23.2978 5.23826 23.6666 6.16652 23.6666V21.3332Z" fill="#252525"/>
</svg>
