<svg width="26" height="26" viewBox="0 0 26 26" fill="none" xmlns="http://www.w3.org/2000/svg">
<path d="M1.93698 9.98745C1.93544 9.98745 1.93395 9.98684 1.93286 9.98574C1.93177 9.98465 1.93115 9.98316 1.93115 9.98162V1.93698C1.93115 1.93544 1.93177 1.93395 1.93286 1.93286C1.93395 1.93177 1.93544 1.93115 1.93698 1.93115H9.98363C9.98518 1.93115 9.98666 1.93177 9.98775 1.93286C9.98885 1.93395 9.98946 1.93544 9.98946 1.93698V9.98162C9.98946 9.98316 9.98885 9.98465 9.98775 9.98574C9.98666 9.98684 9.98518 9.98745 9.98363 9.98745H1.93698ZM16.0186 9.98745C16.0178 9.98745 16.017 9.98729 16.0163 9.98698C16.0156 9.98669 16.015 9.98627 16.0145 9.98574C16.0134 9.98465 16.0128 9.98317 16.0128 9.98162V1.93698C16.0128 1.93543 16.0134 1.93395 16.0145 1.93286C16.0156 1.93177 16.0171 1.93115 16.0186 1.93115H24.0633C24.0648 1.93115 24.0663 1.93177 24.0674 1.93286L24.7731 1.22718L24.0674 1.93286C24.0685 1.93395 24.0691 1.93544 24.0691 1.93698V9.98162C24.0691 9.98317 24.0685 9.98465 24.0674 9.98574L24.7745 10.6928L24.0674 9.98574C24.0663 9.98683 24.0648 9.98745 24.0633 9.98745H16.0186ZM1.93698 24.0691C1.93543 24.0691 1.93395 24.0685 1.93286 24.0674C1.93177 24.0663 1.93115 24.0648 1.93115 24.0633V16.0166C1.93115 16.0151 1.93177 16.0136 1.93286 16.0125C1.93395 16.0114 1.93543 16.0108 1.93698 16.0108H9.98363C9.98518 16.0108 9.98666 16.0114 9.98776 16.0125C9.98885 16.0136 9.98946 16.0151 9.98946 16.0166V24.0633C9.98946 24.0648 9.98885 24.0663 9.98775 24.0674C9.98743 24.0677 9.98706 24.068 9.98667 24.0682C9.98577 24.0688 9.98471 24.0691 9.98363 24.0691H1.93698ZM16.0186 24.0691C16.0171 24.0691 16.0156 24.0685 16.0145 24.0674C16.0134 24.0663 16.0128 24.0648 16.0128 24.0633V16.0166C16.0128 16.0151 16.0134 16.0136 16.0145 16.0125C16.0156 16.0114 16.0171 16.0108 16.0186 16.0108H24.0633C24.0648 16.0108 24.0663 16.0114 24.0674 16.0125C24.0685 16.0136 24.0691 16.0151 24.0691 16.0166V24.0633C24.0691 24.0648 24.0685 24.0663 24.0674 24.0674C24.0663 24.0685 24.0648 24.0691 24.0633 24.0691H16.0186Z" stroke="#252525" stroke-width="2" stroke-linejoin="round"/>
</svg>
