<svg width="28" height="28" viewBox="0 0 28 28" fill="none" xmlns="http://www.w3.org/2000/svg">
<path d="M22.75 4.375H5.25C3.80025 4.375 2.625 5.55025 2.625 7V22.75C2.625 24.1997 3.80025 25.375 5.25 25.375H22.75C24.1997 25.375 25.375 24.1997 25.375 22.75V7C25.375 5.55025 24.1997 4.375 22.75 4.375Z" stroke="#252525" stroke-width="2" stroke-linejoin="round"/>
<path d="M16.1875 14C16.9124 14 17.5 13.4124 17.5 12.6875C17.5 11.9626 16.9124 11.375 16.1875 11.375C15.4626 11.375 14.875 11.9626 14.875 12.6875C14.875 13.4124 15.4626 14 16.1875 14Z" fill="#252525"/>
<path d="M20.5625 14C21.2874 14 21.875 13.4124 21.875 12.6875C21.875 11.9626 21.2874 11.375 20.5625 11.375C19.8376 11.375 19.25 11.9626 19.25 12.6875C19.25 13.4124 19.8376 14 20.5625 14Z" fill="#252525"/>
<path d="M16.1875 18.375C16.9124 18.375 17.5 17.7874 17.5 17.0625C17.5 16.3376 16.9124 15.75 16.1875 15.75C15.4626 15.75 14.875 16.3376 14.875 17.0625C14.875 17.7874 15.4626 18.375 16.1875 18.375Z" fill="#252525"/>
<path d="M20.5625 18.375C21.2874 18.375 21.875 17.7874 21.875 17.0625C21.875 16.3376 21.2874 15.75 20.5625 15.75C19.8376 15.75 19.25 16.3376 19.25 17.0625C19.25 17.7874 19.8376 18.375 20.5625 18.375Z" fill="#252525"/>
<path d="M7.4375 18.375C8.16237 18.375 8.75 17.7874 8.75 17.0625C8.75 16.3376 8.16237 15.75 7.4375 15.75C6.71263 15.75 6.125 16.3376 6.125 17.0625C6.125 17.7874 6.71263 18.375 7.4375 18.375Z" fill="#252525"/>
<path d="M11.8125 18.375C12.5374 18.375 13.125 17.7874 13.125 17.0625C13.125 16.3376 12.5374 15.75 11.8125 15.75C11.0876 15.75 10.5 16.3376 10.5 17.0625C10.5 17.7874 11.0876 18.375 11.8125 18.375Z" fill="#252525"/>
<path d="M7.4375 22.75C8.16237 22.75 8.75 22.1624 8.75 21.4375C8.75 20.7126 8.16237 20.125 7.4375 20.125C6.71263 20.125 6.125 20.7126 6.125 21.4375C6.125 22.1624 6.71263 22.75 7.4375 22.75Z" fill="#252525"/>
<path d="M11.8125 22.75C12.5374 22.75 13.125 22.1624 13.125 21.4375C13.125 20.7126 12.5374 20.125 11.8125 20.125C11.0876 20.125 10.5 20.7126 10.5 21.4375C10.5 22.1624 11.0876 22.75 11.8125 22.75Z" fill="#252525"/>
<path d="M16.1875 22.75C16.9124 22.75 17.5 22.1624 17.5 21.4375C17.5 20.7126 16.9124 20.125 16.1875 20.125C15.4626 20.125 14.875 20.7126 14.875 21.4375C14.875 22.1624 15.4626 22.75 16.1875 22.75Z" fill="#252525"/>
<path d="M7 2.625V4.375M21 2.625V4.375" stroke="#252525" stroke-width="2" stroke-linecap="round" stroke-linejoin="round"/>
<path d="M25.375 8.75H2.625" stroke="#252525" stroke-width="2" stroke-linejoin="round"/>
</svg>
