<svg width="26" height="29" viewBox="0 0 26 29" fill="none" xmlns="http://www.w3.org/2000/svg">
<path d="M16.9974 22.8077V23.8462C16.9974 24.9478 16.5763 26.0044 15.8268 26.7834C15.0773 27.5624 14.0607 28 13.0007 28C11.9408 28 10.9242 27.5624 10.1747 26.7834C9.42521 26.0044 9.00414 24.9478 9.00414 23.8462V22.8077M23.7217 20.6938C22.118 18.6538 20.9858 17.6154 20.9858 11.9915C20.9858 6.84135 18.4555 5.00651 16.3729 4.11538C16.0962 3.99726 15.8358 3.72596 15.7515 3.43065C15.3862 2.13841 14.3621 1 13.0007 1C11.6394 1 10.6146 2.13906 10.2531 3.43195C10.1688 3.7305 9.90837 3.99726 9.63173 4.11538C7.54662 5.00781 5.01876 6.83615 5.01876 11.9915C5.01564 17.6154 3.88348 18.6538 2.27984 20.6938C1.6154 21.5388 2.19741 22.8077 3.35955 22.8077H22.6482C23.8041 22.8077 24.3823 21.5349 23.7217 20.6938Z" stroke="white" stroke-width="2" stroke-linecap="round" stroke-linejoin="round"/>
</svg>
